<svg width="35" height="35" viewBox="0 0 35 35" fill="none" xmlns="http://www.w3.org/2000/svg">
<path d="M7.21701 22.645L12.719 17.143C13.827 17.5221 15.0191 17.5826 16.1598 17.3178C17.3005 17.053 18.3441 16.4735 19.1717 15.6451C19.9994 14.8166 20.5781 13.7726 20.8419 12.6317C21.1057 11.4907 21.044 10.2987 20.664 9.191L16.709 13.153C16.709 13.153 15.715 13.153 14.231 11.669C12.747 10.185 12.747 9.191 12.747 9.191L16.709 5.236C15.6013 4.85596 14.4093 4.79433 13.2683 5.05813C12.1274 5.32193 11.0834 5.90057 10.2549 6.72826C9.42653 7.55594 8.84697 8.59947 8.58217 9.74017C8.31736 10.8809 8.37794 12.073 8.75701 13.181L3.255 18.683" stroke="#3A4756" stroke-linejoin="round"/>
<path d="M13.3 25.9C20.2588 25.9 25.9 20.2588 25.9 13.3C25.9 6.34121 20.2588 0.699997 13.3 0.699997C6.34122 0.699997 0.700012 6.34121 0.700012 13.3C0.700012 20.2588 6.34122 25.9 13.3 25.9Z" stroke="#3A4756" stroke-miterlimit="10"/>
<path d="M13.3 25.2C10.9464 25.2 8.64566 24.5021 6.68871 23.1945C4.73177 21.8869 3.20652 20.0284 2.30583 17.8539C1.40515 15.6795 1.16949 13.2868 1.62865 10.9784C2.08782 8.67005 3.22118 6.54967 4.88543 4.88543C6.54967 3.22118 8.67005 2.08782 10.9784 1.62865C13.2868 1.16949 15.6795 1.40515 17.8539 2.30583C20.0284 3.20652 21.8869 4.73177 23.1945 6.68871C24.5021 8.64566 25.2 10.9464 25.2 13.3C25.2 16.4561 23.9463 19.4829 21.7146 21.7146C19.4829 23.9463 16.4561 25.2 13.3 25.2ZM13.3 2.8C11.2233 2.8 9.19323 3.41581 7.46651 4.56957C5.7398 5.72332 4.39398 7.3632 3.59926 9.28182C2.80454 11.2004 2.59661 13.3116 3.00175 15.3484C3.4069 17.3852 4.40693 19.2562 5.87538 20.7246C7.34383 22.1931 9.21475 23.1931 11.2516 23.5982C13.2884 24.0034 15.3996 23.7955 17.3182 23.0007C19.2368 22.206 20.8767 20.8602 22.0304 19.1335C23.1842 17.4068 23.8 15.3767 23.8 13.3C23.8 10.5152 22.6938 7.84451 20.7246 5.87538C18.7555 3.90625 16.0848 2.8 13.3 2.8Z" fill="#FFFFFE"/>
<path d="M23.163 21.189L33.887 31.913C34.0336 32.0385 34.1526 32.1929 34.2366 32.3666C34.3207 32.5403 34.3679 32.7295 34.3753 32.9223C34.3828 33.1151 34.3503 33.3074 34.2799 33.487C34.2095 33.6667 34.1028 33.8299 33.9663 33.9663C33.8299 34.1027 33.6667 34.2095 33.4871 34.2799C33.3074 34.3503 33.1151 34.3828 32.9223 34.3753C32.7295 34.3679 32.5403 34.3206 32.3667 34.2366C32.193 34.1526 32.0385 34.0335 31.913 33.887L21.161 23.142" stroke="#3A4756" stroke-miterlimit="10"/>
</svg>
