<svg width="22" height="22" viewBox="0 0 22 22" fill="none" xmlns="http://www.w3.org/2000/svg">
<path fill-rule="evenodd" clip-rule="evenodd" d="M0.444435 6.55554C0.444435 3.18047 3.18047 0.444427 6.55555 0.444427H15.4444C18.8195 0.444427 21.5555 3.18047 21.5555 6.55554V15.4444C21.5555 18.8195 18.8195 21.5555 15.4444 21.5555H6.55555C3.18047 21.5555 0.444435 18.8195 0.444435 15.4444V6.55554ZM1.55555 6.55141L1.55555 6.55554V15.4444C1.55555 18.2059 3.79412 20.4444 6.55555 20.4444H15.4444C18.2059 20.4444 20.4444 18.2059 20.4444 15.4444V6.55554C20.4444 3.79412 18.2059 1.55554 15.4444 1.55554H12.7466L15.2158 5.99997H19.8889V7.11108H1.55555V6.55141ZM13.9447 5.99997L11.6255 1.82533L12.1111 1.55554H7.19109L9.66022 5.99997H13.9447ZM1.58606 5.99997C1.86243 3.50001 3.9819 1.55555 6.55552 1.55554L6.0699 1.82533L8.38915 5.99997H1.58606ZM13.8753 13.3271C14.0911 13.1976 14.0911 12.8849 13.8753 12.7554L9.30098 10.0108C9.0788 9.87749 8.79615 10.0375 8.79615 10.2966V15.7858C8.79615 16.0449 9.07881 16.205 9.30098 16.0717L13.8753 13.3271Z" fill="#92A1B2"/>
</svg>
