<svg width="24" height="17" viewBox="0 0 24 17" fill="none" xmlns="http://www.w3.org/2000/svg">
<path fill-rule="evenodd" clip-rule="evenodd" d="M23.4682 14.8787C20.5426 16.7121 17.9921 16.5066 16.8137 12.0357C14.4166 16.949 13.3159 18.0605 10.8104 10.6447C7.30986 18.0378 6.62711 17.2323 5.28909 12.3964C5.07015 11.6054 3.47884 5.85423 3.29644 5.24672C3.04034 4.39483 2.52655 4.18558 2.32979 4.8444C1.99809 5.95528 1.7957 7.9137 1.7957 7.9137L0.946163 7.82012C0.881511 0.690356 5.13918 -1.47731 6.32634 3.01533C6.41598 3.35453 8.54856 11.4494 8.54856 11.4494C8.54856 11.4494 10.3857 6.89951 10.798 5.89776C11.4663 4.27264 12.6207 4.40539 13.2972 6.43377C14.2992 9.43684 15.0384 11.5889 15.0384 11.5889C15.0384 11.5889 15.9395 10.0266 16.14 9.71199C17.6932 7.27384 19.3723 8.0959 19.9592 9.8855C20.8868 12.7138 21.7548 14.9598 23.4682 13.3792V14.8787Z" fill="#FFFEFE"/>
</svg>
