<svg width="21" height="21" viewBox="0 0 21 21" fill="none" xmlns="http://www.w3.org/2000/svg">
<path d="M0 18.8462C0 20.0308 0.945 21 2.1 21H18.9C20.055 21 21 20.0308 21 18.8462V4.84615H16.1747C15.6791 2.09354 13.3255 0 10.5 0C7.67445 0 5.32087 2.09354 4.82527 4.84615H0V18.8462ZM10.5 1.07692C12.7444 1.07692 14.6239 2.69123 15.1032 4.84615H5.8968C6.37612 2.69123 8.25562 1.07692 10.5 1.07692ZM4.725 5.92308V9.15385H5.775V5.92308H15.225V9.15385H16.275V5.92308H19.95V18.8462C19.95 19.4401 19.4791 19.9231 18.9 19.9231H2.1C1.52092 19.9231 1.05 19.4401 1.05 18.8462V5.92308H4.725Z" fill="#92A1B2"/>
</svg>
