<svg width="45" height="30" viewBox="0 0 45 30" fill="none" xmlns="http://www.w3.org/2000/svg">
<path d="M44.0978 0C44.0432 0.905854 43.3232 1.33024 42.3738 1.61561L37.5352 2.77683C37.2069 2.85512 36.9568 3.11927 36.8978 3.44854C36.8978 3.44854 36.9163 9.25317 35.3302 18.7456C34.5217 23.5902 33.0566 24.3205 33.0566 24.3205H11.7782C11.7782 24.3205 10.3139 23.5902 9.50462 18.7456C7.92003 9.25317 7.93699 3.44854 7.93699 3.44854C7.87798 3.11927 7.6279 2.85512 7.30035 2.77683L2.46249 1.61561C1.51232 1.33024 0.792322 0.905854 0.737732 0" stroke="#333333" stroke-width="1.18033" stroke-linecap="round" stroke-linejoin="round"/>
<path d="M33.0567 24.3207L33.267 29.3614H11.5688L11.7784 24.3207" stroke="#333333" stroke-width="1.18033" stroke-linecap="round" stroke-linejoin="round"/>
</svg>
