<svg width="26" height="26" viewBox="0 0 26 26" fill="none" xmlns="http://www.w3.org/2000/svg">
<path d="M17.7319 0.25H8.28265C6.15226 0.25 4.10911 1.09629 2.6027 2.60271C1.09629 4.10912 0.25 6.15226 0.25 8.28265V17.7174C0.25 19.8477 1.09629 21.8909 2.6027 23.3973C4.10911 24.9037 6.15226 25.75 8.28265 25.75H17.7319C19.8623 25.75 21.9055 24.9037 23.4119 23.3973C24.9183 21.8909 25.7646 19.8477 25.7646 17.7174V8.26804C25.7607 6.14018 24.9127 4.1008 23.4067 2.59754C21.9007 1.09429 19.8598 0.249996 17.7319 0.25ZM24.6912 17.7174C24.6892 19.5625 23.9554 21.3314 22.6507 22.6361C21.346 23.9408 19.577 24.6746 17.7319 24.6765H8.28265C6.43755 24.6746 4.66857 23.9408 3.36388 22.6361C2.0592 21.3314 1.32539 19.5625 1.32345 17.7174V8.26804C1.32731 6.42353 2.06175 4.65568 3.36601 3.35141C4.67028 2.04714 6.43814 1.31271 8.28265 1.30885H17.7319C19.5765 1.31271 21.3443 2.04714 22.6486 3.35141C23.9528 4.65568 24.6873 6.42353 24.6912 8.26804V17.7174Z" fill="#3A4756"/>
<path d="M13.5404 7.15079H12.4742V12.4596H7.16541V13.5258H12.4742V18.8346H13.5404V13.5258H18.8493V12.4596H13.5404V7.15079Z" fill="#3A4756"/>
</svg>
