<svg width="24" height="24" viewBox="0 0 24 24" fill="none" xmlns="http://www.w3.org/2000/svg">
<path fill-rule="evenodd" clip-rule="evenodd" d="M14.3621 14.3621C17.1713 11.5537 17.1713 6.99813 14.3621 4.18976C11.5528 1.38053 6.99898 1.38053 4.1897 4.18981C1.38055 6.99813 1.38055 11.5537 4.18976 14.3621C6.99898 17.1713 11.5528 17.1713 14.3621 14.3621ZM14.9897 15.2627C11.7482 18.3592 6.61057 18.3142 3.42414 15.1278C0.191964 11.8966 0.191964 6.65524 3.42408 3.42408C6.65618 0.191983 11.8957 0.191983 15.1277 3.42402C18.1473 6.44269 18.3459 11.2158 15.7235 14.4652L22.8414 21.5831C23.0529 21.7945 23.0529 22.1374 22.8414 22.3488C22.63 22.5602 22.2872 22.5602 22.0757 22.3488L14.9897 15.2627Z" fill="#92A1B2"/>
</svg>
