<svg width="40" height="40" viewBox="0 0 40 40" fill="none" xmlns="http://www.w3.org/2000/svg">
<path fill-rule="evenodd" clip-rule="evenodd" d="M19.758 4.263C22.5776 4.263 25.0242 3.78464 25.0242 3.49905C25.0242 3.21228 22.5776 2.73511 19.758 2.73511C16.9385 2.73511 14.4919 3.21228 14.4919 3.49905C14.4919 3.78464 16.9385 4.263 19.758 4.263Z" stroke="#3A4756" stroke-linecap="round" stroke-linejoin="round"/>
<path fill-rule="evenodd" clip-rule="evenodd" d="M35.6109 8.45275H36.8366C37.381 8.45275 37.8349 8.86388 37.9152 9.41125L38.7381 15.0522C38.8262 15.6597 38.4257 16.2362 37.829 16.3332C37.0799 16.3451 36.6188 16.8841 36.6944 17.5321C36.8217 18.622 36.8865 19.7269 36.8865 20.8419C36.8865 25.9628 35.2319 31.2748 32.551 35.3551C31.4818 36.9835 25.895 38.75 20.0012 38.75C14.0895 38.75 8.32305 36.9663 7.2634 35.3551C4.66753 31.4039 3.11405 26.0884 3.11405 20.8419C3.11405 19.7251 3.17771 18.6197 3.30563 17.5315C3.38001 16.8936 2.92961 16.3469 2.35665 16.3469C1.73847 16.3469 1.25 15.8423 1.25 15.22C1.25 15.1498 1.29522 14.8368 2.08475 9.41185C2.16447 8.86388 2.61963 8.45275 3.16343 8.45275H4.85732C6.99685 5.33152 10.1246 3.12952 13.6647 2.2329C14.6262 1.54868 16.7009 1.25 20.0012 1.25C23.2991 1.25 25.3756 1.55701 26.34 2.26145C29.995 3.17057 33.262 5.34699 35.6109 8.45275Z" stroke="#3A4756" stroke-linecap="round" stroke-linejoin="round"/>
<path d="M1.71771 12.069C3.29439 12.407 5.56481 12.8693 6.18656 13.0121C6.73453 13.1382 8.23148 13.4946 8.38856 13.5309C9.08706 13.6933 9.57196 13.7939 10.0456 13.8706C10.0771 13.876 10.0771 13.876 10.1086 13.8807" stroke="#3A4756" stroke-linecap="round" stroke-linejoin="round"/>
<path d="M10.1084 13.8807C13.3248 14.3876 16.5418 14.6404 19.7582 14.6404C22.8682 14.6404 26.7391 14.265 29.3998 13.7242C29.6062 13.6825 29.8401 13.6314 30.1429 13.5629C30.3107 13.5243 30.9098 13.3868 30.9783 13.3714C31.1347 13.3351 31.2704 13.3041 31.4007 13.275C31.6089 13.2286 31.7969 13.1881 31.9754 13.1506C32.5198 13.037 32.947 12.9418 33.7919 12.7472C34.4826 12.5878 36.7769 12.2356 38.2923 12.0231" stroke="#3A4756" stroke-linecap="round" stroke-linejoin="round"/>
<path fill-rule="evenodd" clip-rule="evenodd" d="M20.6355 33.3072C22.4782 33.2733 24.2102 33.3344 25.531 33.0274C26.784 32.7358 27.5551 32.3461 27.689 32.0736C28.4719 30.5207 28.9384 26.8688 29.0217 21.2415C29.0217 20.4044 28.2046 19.3964 27.4025 19.3964H12.5536C11.7564 19.3964 11.0868 20.3979 11.0809 21.2076C11.0339 27.2639 11.6598 31.0235 12.795 32.3289C13.578 33.0666 16.9544 33.375 20.6355 33.3072Z" stroke="#3A4756" stroke-linecap="round" stroke-linejoin="round"/>
</svg>
