<svg width="113" height="21" viewBox="0 0 113 21" fill="none" xmlns="http://www.w3.org/2000/svg">
<path d="M0.872093 9.63528C0.786203 0.126685 6.43352 -2.76818 8.02966 3.22216C8.14418 3.68076 10.9786 14.4791 10.9786 14.4791C10.9786 14.4791 13.4121 8.40998 13.9633 7.07004C14.8508 4.92039 16.3754 5.07803 17.2772 7.78658C18.6085 11.7921 19.5891 14.6654 19.5891 14.6654C19.5891 14.6654 20.7845 12.5803 21.0207 12.1575C23.082 8.90439 25.3152 10.0079 26.0882 12.394C27.3193 16.1702 28.4717 19.1654 30.7478 17.0515C30.9625 11.3192 38.256 11.3192 39.2867 14.8446C40.1814 14.2427 41.1978 13.4115 41.7633 13.089C41.9879 12.9271 42.2459 12.8179 42.5184 12.7693C42.7909 12.7207 43.0708 12.734 43.3375 12.8083C43.6041 12.8826 43.8506 13.016 44.0589 13.1985C44.2671 13.3811 44.4317 13.6081 44.5404 13.8629C44.8983 14.6153 45.2561 15.7833 45.5997 16.6789C45.9433 17.5746 47.0312 17.6678 47.976 16.4425L47.2603 13.5763L51.1182 12.4083C51.5905 14.0056 52.1766 15.5669 52.8718 17.0802C53.3013 17.9042 53.4587 18.0046 54.3033 17.7968C54.9476 17.5567 55.5722 17.2668 56.1714 16.9297C55.6151 14.528 55.7027 12.0218 56.4254 9.66489C57.1482 7.308 58.4804 5.18425 60.287 3.50879C62.3413 1.80341 64.3883 2.41964 64.9466 4.90606C65.3045 6.51829 65.7339 10.0939 60.2727 15.9266C60.7165 16.9082 61.5897 17.6606 62.513 17.5173C63.8587 17.3023 65.4978 15.9696 66.915 13.7554C68.3322 11.5413 69.0622 12.7451 69.3413 13.6623C69.5274 14.2427 69.7207 15.253 69.9927 16.0126C70.0357 16.2327 70.1435 16.435 70.3022 16.5934C70.4609 16.7518 70.6633 16.8591 70.8833 16.9014C71.1034 16.9438 71.3311 16.9193 71.5371 16.8311C71.7432 16.743 71.9183 16.5952 72.0398 16.4067C72.9702 15.296 73.958 14.128 74.4089 13.6551C74.5926 13.4144 74.8293 13.2194 75.1006 13.0852C75.3718 12.9509 75.6703 12.8811 75.9728 12.8811C76.2754 12.8811 76.5739 12.9509 76.8452 13.0852C77.1164 13.2194 77.353 13.4144 77.5368 13.6551C78.049 14.4824 78.508 15.3417 78.911 16.2275C79.6983 15.511 80.6288 14.214 81.0583 13.7984C82.8835 11.9856 84.1432 12.9744 84.7659 13.8987C86.0901 15.8621 86.1974 18.7354 89.4541 18.5276C87.9081 14.6153 91.9593 12.2148 94.6505 12.3367C97.3418 12.4585 98.5872 13.8128 97.4491 15.8119C96.8246 16.8535 95.8543 17.6423 94.7078 18.0404C96.5902 18.8859 99.1383 18.6208 101.729 17.4671C101.307 16.6861 99.6751 13.7913 99.4318 13.089L104.027 12.9672L105.415 14.9736L108.923 13.0389L109.517 13.9346L106.181 16.3852C106.954 18.3198 109.603 18.8787 112.101 18.1622L112.48 19.1367C111.127 19.6813 108.586 20.5268 108.314 20.6128C107.513 20.8636 105.072 21.5371 102.502 18.5993C99.5534 19.9536 93.6628 22.182 90.5707 19.5451C84.1933 22.354 82.6544 19.0651 81.5307 17.3238C81.2372 16.8724 81.0154 17.159 80.7648 17.4528C80.1006 18.3308 79.3683 19.155 78.5746 19.9177C78.1452 20.233 77.0143 21.1144 75.9478 19.6885C75.6472 19.28 75.1819 18.3413 74.6952 17.5746C74.3373 16.9942 74.1155 17.2522 73.3997 17.8971C73.1492 18.1264 71.7391 19.366 71.1952 19.8461C70.9324 20.1003 70.6191 20.2962 70.2757 20.4213C69.9324 20.5464 69.5665 20.5978 69.202 20.5721C68.8375 20.5464 68.4825 20.4443 68.16 20.2723C67.8375 20.1003 67.5547 19.8623 67.3301 19.5738C66.8004 18.9432 66.3423 18.3843 65.7912 17.7968C64.0161 19.2299 60.0651 22.397 56.8156 18.7068C52.7072 21.3365 49.9801 20.9567 48.9065 18.0476C45.3277 21.8524 43.0731 20.6701 42.0495 18.542C41.7847 17.9902 41.1549 16.7506 40.9258 16.2634C40.911 16.2141 40.8789 16.1719 40.8356 16.1443C40.7923 16.1167 40.7405 16.1055 40.6896 16.1129C40.3114 16.157 39.9361 16.224 39.5659 16.3135C39.8092 21.8668 33.0382 21.9742 31.1844 18.7856C27.1332 21.5156 23.5616 21.4368 21.944 15.2602C18.7589 21.8166 17.2987 23.2999 13.9776 13.4043C9.33233 23.2712 8.43049 22.1964 6.65542 15.7403C6.36196 14.6869 4.25047 7.01271 4.00711 6.20301C3.67071 5.0637 2.99075 4.76991 2.72592 5.6656C2.39309 7.01121 2.15393 8.37833 2.01017 9.75709L0.872093 9.63528ZM36.4023 13.9346C36.0419 13.9232 35.6863 14.0197 35.381 14.2118C35.0758 14.404 34.8349 14.6829 34.689 15.013C34.5431 15.3431 34.499 15.7093 34.5622 16.0647C34.6255 16.42 34.7933 16.7484 35.0441 17.0077C35.2949 17.267 35.6174 17.4454 35.9701 17.5201C36.3229 17.5948 36.6898 17.5625 37.0241 17.4271C37.3583 17.2917 37.6446 17.0595 37.8462 16.7603C38.0479 16.4611 38.1557 16.1084 38.1559 15.7474C38.1597 15.2767 37.9775 14.8235 37.6491 14.4866C37.3206 14.1497 36.8724 13.9564 36.4023 13.9489V13.9346ZM62.5059 6.05254C62.5059 4.95622 62.2697 4.66244 61.9691 4.61944C61.5324 4.54062 61.0958 4.88456 60.7666 5.42913C59.2277 8.00154 58.3044 10.8462 59.1991 14.2212C61.6756 12.222 62.4916 9.47763 62.5059 6.06686V6.05254ZM95.2947 15.2387C95.9317 13.8056 94.1352 12.9959 93.1045 14.3215C91.9807 15.7546 92.2813 16.6933 93.1045 17.3668C94.8008 16.2132 95.0728 15.7689 95.2947 15.253V15.2387Z" fill="#D82333"/>
</svg>
